<?xml version="1.0" encoding="UTF-8"?>
<!-- Created with Inkscape (http://www.inkscape.org/) -->
<svg width="512" height="512" version="1.1" viewBox="0 0 135.47 135.47" xmlns="http://www.w3.org/2000/svg">
 <path transform="scale(.26459)" d="m36.572 0c-9.9048 2.3685e-15 -18.668 3.8084-26.287 11.428-6.8571 6.8571-10.285 15.24-10.285 25.145v438.86c1.1842e-15 10.667 3.4282 19.43 10.285 26.287 7.619 6.8572 16.382 10.285 26.287 10.285h438.86c10.667 0 19.43-3.4282 26.287-10.285 6.8572-6.8572 10.285-15.62 10.285-26.287v-438.86c0-9.9048-3.4282-18.287-10.285-25.145-6.8571-7.619-15.62-11.428-26.287-11.428h-438.86zm213.14 140-0.01171 0.00195c40.256 0 77.304 8.6683 107.09 23.246l42.357-20.645 40.852 12.135-24.537 58.604c1.2386 2.0504 2.4218 4.1189 3.4824 6.2246h-338.49c23.291-46.232 90.162-79.566 169.25-79.566zm-175.04 94.326h350.08c1.2873 4.5049 2.1489 9.1052 2.623 13.775h-355.33c0.47421-4.6702 1.3377-9.2705 2.625-13.775zm-2.666 28.535h355.4c-0.44559 4.6771-1.3666 9.2666-2.6406 13.775h-350.12c-1.2741-4.5088-2.195-9.0983-2.6406-13.775zm8.3789 28.533h338.66c-1.0774 2.1546-2.2815 4.2725-3.5449 6.3691l24.023 57.379-40.85 12.135-40.807-19.889c-14.381 7.1525-30.487 12.893-47.865 16.947-1.8445 7.6145-5.4941 18.321-13.252 26.529-7.6317 8.0736-15.645 9.9128-52.66 10.119-43.784 0.24358-51.313-2.2695-57.629-10.119-7.2-8.9468-9.4614-21.015-10.201-29.996-45.24-13.308-80.378-38.473-95.881-69.473l0.007812-0.00195z"/>
</svg>
